# xmcd
#
# Track frame offsets:
#	150
#	18332
#	37501
#	53825
#	76219
#	97393
#	111702
#	128068
#	142035
#	159138
#	176012
#
# Disc length: 2578 seconds
# Revision: 0
# Processed by: cddbd v1.5.2PL0 Copyright (c) Steve Scherf et al.
# Submitted via: dBpowerAMP V12.0
#
DISCID=8b0a100b
DTITLE=Rosco Levee - Get It While You Can
DYEAR=2013
DGENRE=Blues
TTITLE0=Some Angels Fall
TTITLE1=Gamblin' Man
TTITLE2=Howitzer Eyes
TTITLE3=Back To The Banks
TTITLE4=Whiskey, Blues, Goodnight
TTITLE5=My Gospel
TTITLE6=When The Band Starts To Play
TTITLE7=I Got My Own Plan
TTITLE8=Redemption Calls
TTITLE9=Look Out Moses
TTITLE10=Southern Belle
EXTD=
EXTT0=
EXTT1=
EXTT2=
EXTT3=
EXTT4=
EXTT5=
EXTT6=
EXTT7=
EXTT8=
EXTT9=
EXTT10=
PLAYORDER=
